<?xml version="1.0"?>
<svg xmlns="http://www.w3.org/2000/svg" xmlns:xlink="http://www.w3.org/1999/xlink" xmlns:svgjs="http://svgjs.com/svgjs" version="1.1" width="512" height="512" x="0" y="0" viewBox="0 0 512 512" style="enable-background:new 0 0 512 512" xml:space="preserve" class=""><g>
<g xmlns="http://www.w3.org/2000/svg">
	<g>
		<path d="M210.959,82.787c-49.591,0-89.937,40.345-89.937,89.937s40.346,89.937,89.937,89.937s89.937-40.345,89.937-89.937    S260.55,82.787,210.959,82.787z M203.459,99.866v22.789h-17.723C190.63,111.368,196.949,103.408,203.459,99.866z M203.459,137.655    v27.57h-26.855c0.481-10.076,1.92-19.338,4.046-27.57H203.459z M177.645,105.628c-3.072,5.015-5.785,10.732-8.072,17.027h-14.311    C161.555,115.662,169.144,109.865,177.645,105.628z M144.763,137.655h20.435c-1.944,8.558-3.188,17.822-3.612,27.57h-25.187    C137.385,155.346,140.306,146.033,144.763,137.655z M144.762,207.795c-4.456-8.379-7.377-17.692-8.363-27.57h25.186    c0.424,9.748,1.668,19.011,3.612,27.57H144.762z M155.262,222.794h14.311c2.286,6.295,4.999,12.013,8.072,17.027    C169.144,235.584,161.555,229.787,155.262,222.794z M203.459,245.583c-6.511-3.542-12.83-11.502-17.723-22.789h17.723V245.583z     M203.46,207.794L203.46,207.794h-22.809c-2.126-8.232-3.565-17.494-4.046-27.57h26.855V207.794z M277.157,137.655    c4.457,8.378,7.378,17.692,8.364,27.57h-25.186c-0.424-9.748-1.668-19.011-3.612-27.57H277.157z M266.657,122.655h-14.311    c-2.286-6.295-4.999-12.012-8.071-17.027C252.775,109.866,260.364,115.662,266.657,122.655z M218.459,99.866    c6.511,3.542,12.83,11.502,17.724,22.789h-17.724V99.866z M218.459,137.655h22.809c2.126,8.232,3.565,17.494,4.046,27.57h-26.855    V137.655z M218.459,245.583v-22.789h17.724C231.289,234.081,224.97,242.041,218.459,245.583z M218.459,207.795v-27.57h26.855    c-0.481,10.076-1.92,19.338-4.046,27.57H218.459z M244.275,239.821c3.072-5.014,5.785-10.732,8.071-17.027h14.311    C260.364,229.787,252.775,235.583,244.275,239.821z M277.157,207.794h-20.435c1.944-8.558,3.188-17.822,3.612-27.57h25.186    C284.534,190.103,281.613,199.416,277.157,207.794z" fill="#060500" data-original="#000000" style="" class=""/>
	</g>
</g>
<g xmlns="http://www.w3.org/2000/svg">
	<g>
		<rect x="248.219" y="464.55" width="15" height="14.855" fill="#060500" data-original="#000000" style="" class=""/>
	</g>
</g>
<g xmlns="http://www.w3.org/2000/svg">
	<g>
		<path d="M402.575,0H108.859C88.3,0,71.574,16.726,71.574,37.285v437.43C71.574,495.274,88.3,512,108.859,512h293.716    c20.559,0,37.285-16.726,37.285-37.285V37.285C439.86,16.726,423.134,0,402.575,0z M424.86,474.715    c0,12.288-9.997,22.285-22.285,22.285H108.859c-12.288,0-22.285-9.997-22.285-22.285V37.285C86.574,24.997,96.571,15,108.859,15    h293.716c12.288,0,22.285,9.997,22.285,22.285V474.715z" fill="#060500" data-original="#000000" style="" class=""/>
	</g>
</g>
<g xmlns="http://www.w3.org/2000/svg">
	<g>
		<path d="M97.397,60v392h316.64V60H97.397z M399.037,437h-286.64V75h286.64V437z" fill="#060500" data-original="#000000" style="" class=""/>
	</g>
</g>
<g xmlns="http://www.w3.org/2000/svg">
	<g>
		<rect x="233.219" y="30.5" width="45" height="15" fill="#060500" data-original="#000000" style="" class=""/>
	</g>
</g>
<g xmlns="http://www.w3.org/2000/svg">
	<g>
		<path d="M404.037,464.551v4.444c0,4.218-3.432,7.65-7.65,7.65h-41.169v15h41.169c12.489,0,22.65-10.161,22.65-22.65v-4.444    H404.037z" fill="#060500" data-original="#000000" style="" class=""/>
	</g>
</g>
<g xmlns="http://www.w3.org/2000/svg">
	<g>
		<rect x="328.739" y="476.64" width="20.89" height="15" fill="#060500" data-original="#000000" style="" class=""/>
	</g>
</g>
<g xmlns="http://www.w3.org/2000/svg">
	<g>
		<rect x="130.089" y="458.28" width="72.4" height="15" fill="#060500" data-original="#000000" style="" class=""/>
	</g>
</g>
<g xmlns="http://www.w3.org/2000/svg">
	<g>
		<rect x="450.209" y="108.26" width="15" height="98.37" fill="#060500" data-original="#000000" style="" class=""/>
	</g>
</g>
<g xmlns="http://www.w3.org/2000/svg">
	<g>
		<rect x="450.209" y="223.74" width="15" height="36.21" fill="#060500" data-original="#000000" style="" class=""/>
	</g>
</g>
<g xmlns="http://www.w3.org/2000/svg">
	<g>
		<rect x="46.791" y="251.87" width="15" height="111.82" fill="#060500" data-original="#000000" style="" class=""/>
	</g>
</g>
<g xmlns="http://www.w3.org/2000/svg">
	<g>
		<rect x="310.999" y="97" width="74.5" height="15" fill="#060500" data-original="#000000" style="" class=""/>
	</g>
</g>
<g xmlns="http://www.w3.org/2000/svg">
	<g>
		<rect x="310.999" y="125.4" width="74.5" height="15" fill="#060500" data-original="#000000" style="" class=""/>
	</g>
</g>
<g xmlns="http://www.w3.org/2000/svg">
	<g>
		<rect x="310.999" y="153.8" width="74.5" height="15" fill="#060500" data-original="#000000" style="" class=""/>
	</g>
</g>
<g xmlns="http://www.w3.org/2000/svg">
	<g>
		<rect x="310.999" y="182.2" width="74.5" height="15" fill="#060500" data-original="#000000" style="" class=""/>
	</g>
</g>
<g xmlns="http://www.w3.org/2000/svg">
	<g>
		<rect x="310.999" y="210.6" width="74.5" height="15" fill="#060500" data-original="#000000" style="" class=""/>
	</g>
</g>
<g xmlns="http://www.w3.org/2000/svg">
	<g>
		<rect x="310.999" y="239" width="74.5" height="15" fill="#060500" data-original="#000000" style="" class=""/>
	</g>
</g>
<g xmlns="http://www.w3.org/2000/svg">
	<g>
		<rect x="125.269" y="282.44" width="122.62" height="15" fill="#060500" data-original="#000000" style="" class=""/>
	</g>
</g>
<g xmlns="http://www.w3.org/2000/svg">
	<g>
		<rect x="264.109" y="282.44" width="122.62" height="15" fill="#060500" data-original="#000000" style="" class=""/>
	</g>
</g>
<g xmlns="http://www.w3.org/2000/svg">
	<g>
		<rect x="125.269" y="311.77" width="122.62" height="15" fill="#060500" data-original="#000000" style="" class=""/>
	</g>
</g>
<g xmlns="http://www.w3.org/2000/svg">
	<g>
		<rect x="264.109" y="311.77" width="122.62" height="15" fill="#060500" data-original="#000000" style="" class=""/>
	</g>
</g>
<g xmlns="http://www.w3.org/2000/svg">
	<g>
		<rect x="125.269" y="341.1" width="122.62" height="15" fill="#060500" data-original="#000000" style="" class=""/>
	</g>
</g>
<g xmlns="http://www.w3.org/2000/svg">
	<g>
		<rect x="264.109" y="341.1" width="122.62" height="15" fill="#060500" data-original="#000000" style="" class=""/>
	</g>
</g>
<g xmlns="http://www.w3.org/2000/svg">
	<g>
		<rect x="125.269" y="370.43" width="122.62" height="15" fill="#060500" data-original="#000000" style="" class=""/>
	</g>
</g>
<g xmlns="http://www.w3.org/2000/svg">
	<g>
		<rect x="264.109" y="370.43" width="122.62" height="15" fill="#060500" data-original="#000000" style="" class=""/>
	</g>
</g>
<g xmlns="http://www.w3.org/2000/svg">
	<g>
		<rect x="125.269" y="399.76" width="122.62" height="15" fill="#060500" data-original="#000000" style="" class=""/>
	</g>
</g>
<g xmlns="http://www.w3.org/2000/svg">
	<g>
		<rect x="264.109" y="399.76" width="122.62" height="15" fill="#060500" data-original="#000000" style="" class=""/>
	</g>
</g>
<g xmlns="http://www.w3.org/2000/svg">
</g>
<g xmlns="http://www.w3.org/2000/svg">
</g>
<g xmlns="http://www.w3.org/2000/svg">
</g>
<g xmlns="http://www.w3.org/2000/svg">
</g>
<g xmlns="http://www.w3.org/2000/svg">
</g>
<g xmlns="http://www.w3.org/2000/svg">
</g>
<g xmlns="http://www.w3.org/2000/svg">
</g>
<g xmlns="http://www.w3.org/2000/svg">
</g>
<g xmlns="http://www.w3.org/2000/svg">
</g>
<g xmlns="http://www.w3.org/2000/svg">
</g>
<g xmlns="http://www.w3.org/2000/svg">
</g>
<g xmlns="http://www.w3.org/2000/svg">
</g>
<g xmlns="http://www.w3.org/2000/svg">
</g>
<g xmlns="http://www.w3.org/2000/svg">
</g>
<g xmlns="http://www.w3.org/2000/svg">
</g>
</g></svg>
